<?xml version="1.0" encoding="UTF-8" standalone="no"?>
<!-- Created with Inkscape (http://www.inkscape.org/) -->

<svg
   width="1024"
   height="1024"
   viewBox="0 0 270.93334 270.93333"
   version="1.1"
   id="svg827"
   inkscape:export-filename="..\Desktop\funny.png"
   inkscape:export-xdpi="12.000001"
   inkscape:export-ydpi="12.000001"
   inkscape:version="1.2.1 (9c6d41e410, 2022-07-14)"
   sodipodi:docname="point.svg"
   xml:space="preserve"
   xmlns:inkscape="http://www.inkscape.org/namespaces/inkscape"
   xmlns:sodipodi="http://sodipodi.sourceforge.net/DTD/sodipodi-0.dtd"
   xmlns="http://www.w3.org/2000/svg"
   xmlns:svg="http://www.w3.org/2000/svg"><sodipodi:namedview
     id="namedview829"
     pagecolor="#ffc4a8"
     bordercolor="#666666"
     borderopacity="1.0"
     inkscape:pageshadow="2"
     inkscape:pageopacity="0"
     inkscape:pagecheckerboard="true"
     inkscape:document-units="mm"
     showgrid="true"
     width="1024mm"
     units="px"
     height="1024px"
     inkscape:zoom="0.25"
     inkscape:cx="428"
     inkscape:cy="616"
     inkscape:window-width="1920"
     inkscape:window-height="1017"
     inkscape:window-x="1912"
     inkscape:window-y="-8"
     inkscape:window-maximized="1"
     inkscape:current-layer="g14681"
     inkscape:showpageshadow="2"
     inkscape:deskcolor="#ffc4a8"><inkscape:grid
       type="xygrid"
       id="grid904"
       empspacing="4"
       originx="135.46667"
       originy="135.46667"
       spacingx="0.26458333"
       spacingy="0.26458333"
       dotted="false" /></sodipodi:namedview><defs
     id="defs824"><inkscape:path-effect
       effect="powerclip"
       id="path-effect1898"
       is_visible="true"
       lpeversion="1"
       inverse="true"
       flatten="false"
       hide_clip="false"
       message="Use fill-rule evenodd on &lt;b&gt;fill and stroke&lt;/b&gt; dialog if no flatten result after convert clip to paths." /><clipPath
       clipPathUnits="userSpaceOnUse"
       id="clipPath1070"><rect
         style="fill:#00ff00;fill-opacity:0.223404;stroke-width:6.96201"
         id="rect1072"
         width="70.866402"
         height="41.474834"
         x="102.65833"
         y="64.358505" /></clipPath><clipPath
       clipPathUnits="userSpaceOnUse"
       id="clipPath1070-3"><rect
         style="fill:#00ff00;fill-opacity:0.223404;stroke-width:6.96201"
         id="rect1072-9"
         width="70.866402"
         height="41.474834"
         x="102.65833"
         y="64.358505" /></clipPath><clipPath
       clipPathUnits="userSpaceOnUse"
       id="clipPath1894"><path
         id="lpe_path-effect1898"
         style="fill:#00ff00;fill-opacity:0.223404;stroke-width:6.96201"
         class="powerclip"
         d="M 97.65832,68.024986 H 173.275 V 143.64167 H 97.65832 Z m 50.50834,37.808344 a 12.7,12.7 0 0 0 -12.7,-12.700002 12.7,12.7 0 0 0 -12.7,12.700002 12.7,12.7 0 0 0 12.7,12.7 12.7,12.7 0 0 0 12.7,-12.7 z" /></clipPath><clipPath
       clipPathUnits="userSpaceOnUse"
       id="clipPath1894-5"><path
         id="lpe_path-effect1898-8"
         style="fill:#00ff00;fill-opacity:0.223404;stroke-width:6.96201"
         class="powerclip"
         d="M 97.65832,68.024986 H 173.275 V 143.64167 H 97.65832 Z m 50.50834,37.808344 a 12.7,12.7 0 0 0 -12.7,-12.700002 12.7,12.7 0 0 0 -12.7,12.700002 12.7,12.7 0 0 0 12.7,12.7 12.7,12.7 0 0 0 12.7,-12.7 z" /></clipPath><clipPath
       clipPathUnits="userSpaceOnUse"
       id="clipPath1070-3-1"><rect
         style="fill:#00ff00;fill-opacity:0.223404;stroke-width:6.96201"
         id="rect1072-9-6"
         width="70.866402"
         height="41.474834"
         x="102.65833"
         y="64.358505" /></clipPath><clipPath
       clipPathUnits="userSpaceOnUse"
       id="clipPath1894-5-3"><path
         id="lpe_path-effect1898-8-9"
         style="fill:#00ff00;fill-opacity:0.223404;stroke-width:6.96201"
         class="powerclip"
         d="M 97.65832,68.024986 H 173.275 V 143.64167 H 97.65832 Z m 50.50834,37.808344 a 12.7,12.7 0 0 0 -12.7,-12.700002 12.7,12.7 0 0 0 -12.7,12.700002 12.7,12.7 0 0 0 12.7,12.7 12.7,12.7 0 0 0 12.7,-12.7 z" /></clipPath><clipPath
       clipPathUnits="userSpaceOnUse"
       id="clipPath2827"><path
         id="path2829"
         clip-path="url(#clipPath1070-3)"
         style="fill:#00ff00;fill-opacity:0.223404;stroke-width:6.74445"
         d="M 168.275,105.83333 A 32.808342,32.808342 0 0 1 135.46666,138.64167 32.808342,32.808342 0 0 1 102.65832,105.83333 32.808342,32.808342 0 0 1 135.46666,73.024986 32.808342,32.808342 0 0 1 168.275,105.83333 Z" /></clipPath></defs><g
     inkscape:label="Layer 1"
     inkscape:groupmode="layer"
     id="layer1"><g
       id="g14681"
       transform="matrix(0.90625,0,0,0.90625,12.7,12.7)"
       style="fill:#e1dcdc;fill-opacity:1"><g
         id="g13914"
         style="fill:#1b1b1b;fill-opacity:1"><circle
           style="fill:#1b1b1b;fill-opacity:1;stroke-width:0.264583"
           id="path1274"
           cx="50.800003"
           cy="220.13333"
           r="50.799999" /><circle
           style="fill:#1b1b1b;fill-opacity:1;stroke-width:0.264583"
           id="path1276"
           cx="220.13333"
           cy="220.13333"
           r="50.799999" /><circle
           style="fill:#1b1b1b;fill-opacity:1;stroke-width:0.264583"
           id="path1462"
           cx="220.13333"
           cy="50.800003"
           r="50.799999" /><circle
           style="fill:#1b1b1b;fill-opacity:1;stroke-width:0.264583"
           id="path1464"
           cx="50.800003"
           cy="50.800003"
           r="50.799999" /><g
           id="g13905"
           style="fill:#1b1b1b;fill-opacity:1"><rect
             style="fill:#1b1b1b;fill-opacity:1;stroke-width:0.264583"
             id="rect1510"
             width="169.33333"
             height="270.93332"
             x="50.800003"
             y="5.0399999e-06" /></g><rect
           style="fill:#1b1b1b;fill-opacity:1;stroke-width:0.264583"
           id="rect1512"
           width="270.93332"
           height="169.33333"
           x="5.0399999e-06"
           y="50.800003" /></g><g
         id="g13924"
         style="fill:#e1dcdc;fill-opacity:1"><path
           id="path12726"
           style="fill:#e1dcdc;stroke-width:0.091;fill-opacity:1"
           d="m 135.46667,73.025 c -18.11953,-3e-6 -32.80834,14.688808 -32.80834,32.80833 V 127 h 20.10834 v -21.16667 c 0,-7.014005 5.68598,-12.699997 12.7,-12.699997 7.01401,0 12.7,5.685992 12.7,12.699997 V 127 H 168.275 v -21.16667 c 0,-18.119518 -14.68881,-32.808328 -32.80833,-32.80833 z" /><g
           id="g4535"
           style="fill:#e1dcdc;fill-opacity:1"><path
             id="path3602"
             style="fill:#e1dcdc;fill-opacity:1;stroke-width:0.0840782;stroke-dasharray:none"
             d="m 98.425004,132.29167 h 74.083336 v 62.44167 H 98.425004 Z" /><path
             id="path3602-1"
             style="fill:#e1dcdc;fill-opacity:1;stroke-width:0.0812203;stroke-dasharray:none"
             d="m 92.075001,138.64167 h 86.783339 v 49.74167 H 92.075001 Z" /><ellipse
             style="fill:#e1dcdc;fill-opacity:1;stroke-width:0.182;stroke-dasharray:none"
             id="path3678"
             cx="98.424995"
             cy="138.64166"
             rx="6.3500071"
             ry="6.3500104" /><ellipse
             style="fill:#e1dcdc;fill-opacity:1;stroke-width:0.182;stroke-dasharray:none"
             id="path3678-6"
             cx="98.425003"
             cy="188.38333"
             rx="6.3500071"
             ry="6.3500104" /><ellipse
             style="fill:#e1dcdc;fill-opacity:1;stroke-width:0.182;stroke-dasharray:none"
             id="path3678-6-9"
             cx="172.50833"
             cy="188.38333"
             rx="6.3500071"
             ry="6.3500104" /><ellipse
             style="fill:#e1dcdc;fill-opacity:1;stroke-width:0.182;stroke-dasharray:none"
             id="path3678-6-9-8"
             cx="172.50833"
             cy="138.64166"
             rx="6.3500071"
             ry="6.3500104" /></g></g></g></g></svg>
